<svg xmlns="http://www.w3.org/2000/svg" version="1.1" xmlns:xlink="http://www.w3.org/1999/xlink" xmlns:svgjs="http://svgjs.dev/svgjs" width="1000" height="1000" viewBox="0 0 1000 1000"><rect width="1000" height="1000" fill="#000000"></rect><g transform="matrix(0.7,0,0,0.7,149.57576369109483,282.1265587044535)"><svg viewBox="0 0 396 247" data-background-color="#ffffff" preserveAspectRatio="xMidYMid meet" height="623" width="1000" xmlns="http://www.w3.org/2000/svg" xmlns:xlink="http://www.w3.org/1999/xlink"><g id="tight-bounds" transform="matrix(1,0,0,1,0.2399965790772285,-0.09999999999999432)"><svg viewBox="0 0 395.52 247.2" height="247.2" width="395.52"><g><svg></svg></g><g><svg viewBox="0 0 395.52 247.2" height="247.2" width="395.52"><g><g><path xmlns="http://www.w3.org/2000/svg" d="M284.633 247.2h-37.786c-21.189-0.235-40.141-3.414-56.856-9.535-16.715-6.121-30.959-14.714-42.73-25.779-11.771-11.065-20.765-24.084-26.981-39.058-0.693-1.651-1.347-3.32-1.962-5.007l75.455 0c1.248 1.613 2.577 3.165 3.987 4.654 5.886 6.262 13.137 11.159 21.754 14.691 8.57 3.531 18.387 5.297 29.452 5.297h35.667zM120.28 74.301c6.215-14.926 15.209-27.922 26.981-38.987 11.771-11.065 26.015-19.729 42.73-25.991 16.715-6.215 35.667-9.323 56.856-9.323h37.786v54.737h-35.667c-11.065 0-20.883 1.766-29.452 5.297-8.617 3.531-15.868 8.405-21.754 14.62-1.423 1.514-2.764 3.089-4.022 4.725l-75.441 0c0.622-1.711 1.283-3.403 1.983-5.078z" fill="#8758ff" fill-rule="nonzero" stroke="none" stroke-width="1" stroke-linecap="butt" stroke-linejoin="miter" stroke-miterlimit="10" stroke-dasharray="" stroke-dashoffset="0" font-family="none" font-weight="none" font-size="none" text-anchor="none" style="mix-blend-mode: normal" data-fill-palette-color="tertiary"></path></g></g><g transform="matrix(1,0,0,1,0,93.56153121801432)"><svg viewBox="0 0 395.52 60.07693756397133" height="60.07693756397133" width="395.52"><g><svg viewBox="0 0 395.52 60.07693756397133" height="60.07693756397133" width="395.52"><g><svg viewBox="0 0 395.52 60.07693756397133" height="60.07693756397133" width="395.52"><g><svg viewBox="0 0 395.52 60.07693756397133" height="60.07693756397133" width="395.52"><g><svg viewBox="0 0 395.52 60.07693756397133" height="60.07693756397133" width="395.52"><g><svg viewBox="0 0 395.52 60.07693756397133" height="60.07693756397133" width="395.52"><g transform="matrix(1,0,0,1,0,0)"><svg width="395.52" viewBox="1.600000023841858 -36.5 244.22999572753906 37.099998474121094" height="60.07693756397133" data-palette-color="#8758ff"><path d="M19.95 0L15.5 0Q11.5 0 8.35-1.65 5.2-3.3 3.4-6.2 1.6-9.1 1.6-12.85L1.6-12.85Q1.6-16.6 3.4-19.53 5.2-22.45 8.35-24.1 11.5-25.75 15.5-25.75L15.5-25.75 19.95-25.75 19.95-18.55 16.05-18.55Q14.3-18.55 13-17.8 11.7-17.05 11-15.75 10.3-14.45 10.3-12.85L10.3-12.85Q10.3-11.25 11-9.93 11.7-8.6 13-7.85 14.3-7.1 16.05-7.1L16.05-7.1 19.95-7.1 19.95 0ZM37 0.6L37 0.6Q33.1 0.6 29.92-1.13 26.75-2.85 24.85-5.9 22.95-8.95 22.95-12.9L22.95-12.9Q22.95-16.8 24.85-19.85 26.75-22.9 29.95-24.63 33.15-26.35 37.05-26.35L37.05-26.35Q40.95-26.35 44.12-24.63 47.3-22.9 49.17-19.85 51.05-16.8 51.05-12.9L51.05-12.9Q51.05-8.95 49.17-5.9 47.3-2.85 44.12-1.13 40.95 0.6 37 0.6ZM37-7.1L37-7.1Q38.6-7.1 39.82-7.85 41.05-8.6 41.7-9.93 42.35-11.25 42.35-12.9L42.35-12.9Q42.35-14.6 41.7-15.9 41.05-17.2 39.82-17.95 38.6-18.7 37-18.7L37-18.7Q35.4-18.7 34.2-17.95 33-17.2 32.32-15.9 31.65-14.6 31.65-12.9L31.65-12.9Q31.65-11.25 32.32-9.93 33-8.6 34.2-7.85 35.4-7.1 37-7.1ZM63.8 0L55.15 0 55.15-36.5 63.8-36.5 63.8 0ZM77.49 0L68.84 0 68.84-36.5 77.49-36.5 77.49 0ZM104.49 0L96.49 0Q92.14 0 88.82-1.55 85.49-3.1 83.57-6 81.64-8.9 81.64-12.85L81.64-12.85Q81.64-17.25 83.49-20.25 85.34-23.25 88.39-24.8 91.44-26.35 94.94-26.35L94.94-26.35Q98.74-26.35 101.52-24.78 104.29-23.2 105.82-20.35 107.34-17.5 107.34-13.7L107.34-13.7Q107.34-12.9 107.27-11.88 107.19-10.85 106.99-10.15L106.99-10.15 90.64-10.15Q90.94-9.05 91.62-8.33 92.29-7.6 93.42-7.25 94.54-6.9 95.99-6.9L95.99-6.9 104.49-6.9 104.49 0ZM90.34-15.2L90.34-15.2 99.14-15.2Q99.14-15.95 98.94-16.57 98.74-17.2 98.39-17.75 98.04-18.3 97.54-18.7 97.04-19.1 96.34-19.3 95.64-19.5 94.84-19.5L94.84-19.5Q93.79-19.5 92.99-19.15 92.19-18.8 91.64-18.23 91.09-17.65 90.77-16.88 90.44-16.1 90.34-15.2ZM128.84 0L124.39 0Q120.39 0 117.24-1.65 114.09-3.3 112.29-6.2 110.49-9.1 110.49-12.85L110.49-12.85Q110.49-16.6 112.29-19.53 114.09-22.45 117.24-24.1 120.39-25.75 124.39-25.75L124.39-25.75 128.84-25.75 128.84-18.55 124.94-18.55Q123.19-18.55 121.89-17.8 120.59-17.05 119.89-15.75 119.19-14.45 119.19-12.85L119.19-12.85Q119.19-11.25 119.89-9.93 120.59-8.6 121.89-7.85 123.19-7.1 124.94-7.1L124.94-7.1 128.84-7.1 128.84 0ZM150.54 0L142.74 0Q139.09 0 137.01-2.08 134.94-4.15 134.94-7.75L134.94-7.75 134.94-31.9 143.59-31.9 143.59-8.4Q143.59-7.85 143.99-7.48 144.39-7.1 144.94-7.1L144.94-7.1 150.54-7.1 150.54 0ZM150.54-18.95L130.89-18.95 130.89-25.75 150.54-25.75 150.54-18.95ZM170.08 0.6L170.08 0.6Q165.63 0.6 162.21-1.18 158.78-2.95 156.81-6.23 154.83-9.5 154.83-13.95L154.83-13.95 154.83-35 164.28-35 164.28-13.5Q164.28-11.75 165.01-10.33 165.73-8.9 167.03-8.08 168.33-7.25 170.08-7.25L170.08-7.25Q171.88-7.25 173.18-8.08 174.48-8.9 175.18-10.33 175.88-11.75 175.88-13.5L175.88-13.5 175.88-35 185.33-35 185.33-13.95Q185.33-9.5 183.38-6.23 181.43-2.95 178.01-1.18 174.58 0.6 170.08 0.6ZM200.03 0L190.48 0 190.48-35 206.73-35Q210.43-35 213.43-33.43 216.43-31.85 218.23-29.08 220.03-26.3 220.03-22.6L220.03-22.6Q220.03-19.4 218.51-16.73 216.98-14.05 214.43-12.4L214.43-12.4 216.78-8.5Q217.08-8.05 217.46-7.83 217.83-7.6 218.48-7.6L218.48-7.6 221.28-7.6 221.28 0 216.08 0Q213.58 0 211.63-1.13 209.68-2.25 208.63-4.05L208.63-4.05 205.08-10.15Q204.78-10.15 204.48-10.15 204.18-10.15 203.93-10.15L203.93-10.15 200.03-10.15 200.03 0ZM200.03-27.25L200.03-17.75 205.73-17.75Q206.98-17.75 208.03-18.32 209.08-18.9 209.73-20 210.38-21.1 210.38-22.55L210.38-22.55Q210.38-24 209.73-25.05 209.08-26.1 208.03-26.68 206.98-27.25 205.73-27.25L205.73-27.25 200.03-27.25ZM245.83 0L235.68 0Q232.28 0 229.73-1.48 227.18-2.95 225.78-5.4 224.38-7.85 224.38-10.8L224.38-10.8 224.38-35 233.93-35 233.93-10.45Q233.93-9.35 234.7-8.55 235.48-7.75 236.58-7.75L236.58-7.75 245.83-7.75 245.83 0Z" opacity="1" transform="matrix(1,0,0,1,0,0)" fill="#ffffff" class="undefined-text-0" data-fill-palette-color="primary" id="text-0"></path></svg></g></svg></g></svg></g></svg></g></svg></g></svg></g></svg></g></svg></g><defs></defs></svg><rect width="395.52" height="247.2" fill="none" stroke="none" visibility="hidden"></rect></g></svg></g></svg>