<svg xmlns="http://www.w3.org/2000/svg" version="1.1" xmlns:xlink="http://www.w3.org/1999/xlink" xmlns:svgjs="http://svgjs.dev/svgjs" width="1000" height="1000" viewBox="0 0 1000 1000"><rect width="1000" height="1000" fill="#ffffff"></rect><g transform="matrix(0.7,0,0,0.7,149.57576852078125,282.1265587044535)"><svg viewBox="0 0 396 247" data-background-color="#ffffff" preserveAspectRatio="xMidYMid meet" height="623" width="1000" xmlns="http://www.w3.org/2000/svg" xmlns:xlink="http://www.w3.org/1999/xlink"><g id="tight-bounds" transform="matrix(1,0,0,1,0.23999380824375294,-0.09999999999999432)"><svg viewBox="0 0 395.52 247.2" height="247.2" width="395.52"><g><svg></svg></g><g><svg viewBox="0 0 395.52 247.2" height="247.2" width="395.52"><g><g><path xmlns="http://www.w3.org/2000/svg" d="M276.864 247.2h-31.783c-18.834-0.235-36.021-3.602-51.559-10.1-15.538-6.451-28.887-15.326-40.046-26.627-11.206-11.301-19.8-24.367-25.78-39.199-0.204-0.501-0.404-1.003-0.6-1.506h37.294c4.125 7.59 9.198 14.378 15.218 20.364 8.334 8.381 18.152 14.926 29.453 19.635 11.301 4.709 23.661 7.181 37.08 7.416h30.723zM127.696 75.926c5.98-14.832 14.573-27.898 25.78-39.199 11.159-11.301 24.508-20.2 40.046-26.698 15.538-6.451 32.725-9.794 51.559-10.029h31.783v30.017h-30.723c-13.419 0-25.779 2.401-37.08 7.204-11.301 4.85-21.118 11.442-29.453 19.776-6.051 6.051-11.144 12.862-15.281 20.435l-37.231 0c0.197-0.503 0.397-1.005 0.6-1.506z" fill="#8758ff" fill-rule="nonzero" stroke="none" stroke-width="1" stroke-linecap="butt" stroke-linejoin="miter" stroke-miterlimit="10" stroke-dasharray="" stroke-dashoffset="0" font-family="none" font-weight="none" font-size="none" text-anchor="none" style="mix-blend-mode: normal" data-fill-palette-color="tertiary"></path></g></g><g transform="matrix(1,0,0,1,0,92.23904253045522)"><svg viewBox="0 0 395.52 62.72191493908955" height="62.72191493908955" width="395.52"><g><svg viewBox="0 0 395.52 62.72191493908955" height="62.72191493908955" width="395.52"><g><svg viewBox="0 0 395.52 62.72191493908955" height="62.72191493908955" width="395.52"><g><svg viewBox="0 0 395.52 62.72191493908955" height="62.72191493908955" width="395.52"><g><svg viewBox="0 0 395.52 62.72191493908955" height="62.72191493908955" width="395.52"><g><svg viewBox="0 0 395.52 62.72191493908955" height="62.72191493908955" width="395.52"><g transform="matrix(1,0,0,1,0,0)"><svg width="395.52" viewBox="2.25 -36.5 233.92999267578125 37.099998474121094" height="62.72191493908955" data-palette-color="#8758ff"><path d="M19 0L16 0Q12.05 0 8.95-1.7 5.85-3.4 4.05-6.28 2.25-9.15 2.25-12.75L2.25-12.75Q2.25-16.35 4.05-19.23 5.85-22.1 8.95-23.8 12.05-25.5 16-25.5L16-25.5 19-25.5 19-21.55 15.85-21.55Q13.3-21.55 11.28-20.38 9.25-19.2 8.08-17.2 6.9-15.2 6.9-12.75L6.9-12.75Q6.9-10.3 8.08-8.3 9.25-6.3 11.28-5.13 13.3-3.95 15.85-3.95L15.85-3.95 19-3.95 19 0ZM36.25 0.6L36.25 0.6Q32.35 0.6 29.35-1.18 26.35-2.95 24.6-5.98 22.85-9 22.85-12.75L22.85-12.75Q22.85-16.5 24.6-19.53 26.35-22.55 29.35-24.33 32.35-26.1 36.25-26.1L36.25-26.1Q40.15-26.1 43.17-24.33 46.2-22.55 47.92-19.53 49.65-16.5 49.65-12.75L49.65-12.75Q49.65-9 47.92-5.98 46.2-2.95 43.17-1.18 40.15 0.6 36.25 0.6ZM36.25-3.35L36.25-3.35Q38.9-3.35 40.85-4.6 42.8-5.85 43.9-7.98 45-10.1 45-12.75L45-12.75Q45-15.4 43.9-17.53 42.8-19.65 40.85-20.9 38.9-22.15 36.25-22.15L36.25-22.15Q33.65-22.15 31.67-20.9 29.7-19.65 28.6-17.53 27.5-15.4 27.5-12.75L27.5-12.75Q27.5-10.1 28.6-7.98 29.7-5.85 31.67-4.6 33.65-3.35 36.25-3.35ZM60.15 0L55.55 0 55.55-36.5 60.15-36.5 60.15 0ZM72.04 0L67.44 0 67.44-36.5 72.04-36.5 72.04 0ZM98.84 0L92.29 0Q88.09 0 84.84-1.58 81.59-3.15 79.77-6.03 77.94-8.9 77.94-12.75L77.94-12.75Q77.94-16.55 79.49-19.58 81.04-22.6 83.79-24.35 86.54-26.1 90.19-26.1L90.19-26.1Q94.14-26.1 96.77-24.4 99.39-22.7 100.69-19.83 101.99-16.95 101.99-13.4L101.99-13.4Q101.99-12.85 101.97-12.25 101.94-11.65 101.84-11.2L101.84-11.2 82.84-11.2Q83.09-8.85 84.39-7.23 85.69-5.6 87.72-4.78 89.74-3.95 92.19-3.95L92.19-3.95 98.84-3.95 98.84 0ZM82.79-14.45L82.79-14.45 97.34-14.45Q97.34-15.4 97.14-16.48 96.94-17.55 96.44-18.57 95.94-19.6 95.12-20.43 94.29-21.25 93.07-21.75 91.84-22.25 90.19-22.25L90.19-22.25Q88.44-22.25 87.12-21.58 85.79-20.9 84.84-19.78 83.89-18.65 83.39-17.25 82.89-15.85 82.79-14.45ZM123.19 0L120.19 0Q116.24 0 113.14-1.7 110.04-3.4 108.24-6.28 106.44-9.15 106.44-12.75L106.44-12.75Q106.44-16.35 108.24-19.23 110.04-22.1 113.14-23.8 116.24-25.5 120.19-25.5L120.19-25.5 123.19-25.5 123.19-21.55 120.04-21.55Q117.49-21.55 115.46-20.38 113.44-19.2 112.26-17.2 111.09-15.2 111.09-12.75L111.09-12.75Q111.09-10.3 112.26-8.3 113.44-6.3 115.46-5.13 117.49-3.95 120.04-3.95L120.04-3.95 123.19-3.95 123.19 0ZM143.14 0L137.14 0Q133.74 0 131.81-1.95 129.89-3.9 129.89-7.25L129.89-7.25 129.89-31.9 134.49-31.9 134.49-7.55Q134.49-5.9 135.41-4.93 136.34-3.95 137.99-3.95L137.99-3.95 143.14-3.95 143.14 0ZM143.24-21.55L125.49-21.55 125.49-25.5 143.24-25.5 143.24-21.55ZM162.68 0.6L162.68 0.6Q158.63 0.6 155.48-1.1 152.33-2.8 150.56-6 148.78-9.2 148.78-13.55L148.78-13.55 148.78-35 153.58-35 153.58-13.05Q153.58-10.5 154.68-8.35 155.78-6.2 157.83-4.93 159.88-3.65 162.68-3.65L162.68-3.65Q165.48-3.65 167.51-4.93 169.53-6.2 170.63-8.35 171.73-10.5 171.73-13.05L171.73-13.05 171.73-35 176.53-35 176.53-13.55Q176.53-9.2 174.76-6 172.98-2.8 169.86-1.1 166.73 0.6 162.68 0.6ZM188.78 0L183.98 0 183.98-35 199.33-35Q202.63-35 205.33-33.58 208.03-32.15 209.63-29.58 211.23-27 211.23-23.55L211.23-23.55Q211.23-20.05 209.46-17.38 207.68-14.7 204.68-13.4L204.68-13.4 208.43-5.8Q208.83-5 209.31-4.63 209.78-4.25 210.68-4.25L210.68-4.25 213.18-4.25 213.18 0 209.93 0Q207.98 0 206.51-1 205.03-2 204.08-3.7L204.08-3.7 199.88-12.25Q199.38-12.2 198.81-12.18 198.23-12.15 197.63-12.15L197.63-12.15 188.78-12.15 188.78 0ZM188.78-30.75L188.78-16.4 198.68-16.4Q200.83-16.4 202.61-17.25 204.38-18.1 205.41-19.7 206.43-21.3 206.43-23.55L206.43-23.55Q206.43-25.85 205.38-27.45 204.33-29.05 202.58-29.9 200.83-30.75 198.73-30.75L198.73-30.75 188.78-30.75ZM236.18 0L226.78 0Q223.93 0 221.85-1.23 219.78-2.45 218.65-4.58 217.53-6.7 217.53-9.35L217.53-9.35 217.53-35 222.33-35 222.33-8.75Q222.33-6.8 223.55-5.53 224.78-4.25 226.78-4.25L226.78-4.25 236.18-4.25 236.18 0Z" opacity="1" transform="matrix(1,0,0,1,0,0)" fill="#000000" class="undefined-text-0" data-fill-palette-color="primary" id="text-0"></path></svg></g></svg></g></svg></g></svg></g></svg></g></svg></g></svg></g></svg></g><defs></defs></svg><rect width="395.52" height="247.2" fill="none" stroke="none" visibility="hidden"></rect></g></svg></g></svg>